<svg xmlns="http://www.w3.org/2000/svg" x="0px" y="0px"
     width="80" height="80"
     viewBox="0 0 172 172"
     style=" fill:#000000;"><path d="M58.05,151.36l-19.35,-58.48l-19.35,58.48l-4.3,-1.72l23.65,-70.52l23.65,70.52z" fill="#788b9c"></path><path d="M152.65,151.36l-19.35,-58.48l-19.35,58.48l-4.3,-1.72l23.65,-70.52l23.65,70.52z" fill="#788b9c"></path><path d="M131.58,87.29l-45.58,-62.35l-45.58,62.35l-3.44,-2.58l49.02,-66.65l49.02,66.65z" fill="#788b9c"></path><g><circle cx="20" cy="5" transform="scale(4.3,4.3)" r="3.5" fill="#8bb7f0"></circle><path d="M86,8.6c7.31,0 12.9,5.59 12.9,12.9c0,7.31 -5.59,12.9 -12.9,12.9c-7.31,0 -12.9,-5.59 -12.9,-12.9c0,-7.31 5.59,-12.9 12.9,-12.9M86,4.3c-9.46,0 -17.2,7.74 -17.2,17.2c0,9.46 7.74,17.2 17.2,17.2c9.46,0 17.2,-7.74 17.2,-17.2c0,-9.46 -7.74,-17.2 -17.2,-17.2z" fill="#4e7ab5"></path></g><g><circle cx="36" cy="35" transform="scale(4.3,4.3)" r="3.5" fill="#8bb7f0"></circle><path d="M154.8,137.6c7.31,0 12.9,5.59 12.9,12.9c0,7.31 -5.59,12.9 -12.9,12.9c-7.31,0 -12.9,-5.59 -12.9,-12.9c0,-7.31 5.59,-12.9 12.9,-12.9M154.8,133.3c-9.46,0 -17.2,7.74 -17.2,17.2c0,9.46 7.74,17.2 17.2,17.2c9.46,0 17.2,-7.74 17.2,-17.2c0,-9.46 -7.74,-17.2 -17.2,-17.2z" fill="#4e7ab5"></path></g><g><circle cx="26" cy="35" transform="scale(4.3,4.3)" r="3.5" fill="#8bb7f0"></circle><path d="M111.8,137.6c7.31,0 12.9,5.59 12.9,12.9c0,7.31 -5.59,12.9 -12.9,12.9c-7.31,0 -12.9,-5.59 -12.9,-12.9c0,-7.31 5.59,-12.9 12.9,-12.9M111.8,133.3c-9.46,0 -17.2,7.74 -17.2,17.2c0,9.46 7.74,17.2 17.2,17.2c9.46,0 17.2,-7.74 17.2,-17.2c0,-9.46 -7.74,-17.2 -17.2,-17.2z" fill="#4e7ab5"></path></g><g><circle cx="31" cy="20" transform="scale(4.3,4.3)" r="3.5" fill="#8bb7f0"></circle><path d="M133.3,73.1c7.31,0 12.9,5.59 12.9,12.9c0,7.31 -5.59,12.9 -12.9,12.9c-7.31,0 -12.9,-5.59 -12.9,-12.9c0,-7.31 5.59,-12.9 12.9,-12.9M133.3,68.8c-9.46,0 -17.2,7.74 -17.2,17.2c0,9.46 7.74,17.2 17.2,17.2c9.46,0 17.2,-7.74 17.2,-17.2c0,-9.46 -7.74,-17.2 -17.2,-17.2z" fill="#4e7ab5"></path></g><g><circle cx="9" cy="20" transform="scale(4.3,4.3)" r="3.5" fill="#8bb7f0"></circle><path d="M38.7,73.1c7.31,0 12.9,5.59 12.9,12.9c0,7.31 -5.59,12.9 -12.9,12.9c-7.31,0 -12.9,-5.59 -12.9,-12.9c0,-7.31 5.59,-12.9 12.9,-12.9M38.7,68.8c-9.46,0 -17.2,7.74 -17.2,17.2c0,9.46 7.74,17.2 17.2,17.2c9.46,0 17.2,-7.74 17.2,-17.2c0,-9.46 -7.74,-17.2 -17.2,-17.2z" fill="#4e7ab5"></path></g><g><circle cx="14" cy="35" transform="scale(4.3,4.3)" r="3.5" fill="#8bb7f0"></circle><path d="M60.2,137.6c7.31,0 12.9,5.59 12.9,12.9c0,7.31 -5.59,12.9 -12.9,12.9c-7.31,0 -12.9,-5.59 -12.9,-12.9c0,-7.31 5.59,-12.9 12.9,-12.9M60.2,133.3c-9.46,0 -17.2,7.74 -17.2,17.2c0,9.46 7.74,17.2 17.2,17.2c9.46,0 17.2,-7.74 17.2,-17.2c0,-9.46 -7.74,-17.2 -17.2,-17.2z" fill="#4e7ab5"></path></g><g><circle cx="4" cy="35" transform="scale(4.3,4.3)" r="3.5" fill="#8bb7f0"></circle><path d="M17.2,137.6c7.31,0 12.9,5.59 12.9,12.9c0,7.31 -5.59,12.9 -12.9,12.9c-7.31,0 -12.9,-5.59 -12.9,-12.9c0,-7.31 5.59,-12.9 12.9,-12.9M17.2,133.3c-9.46,0 -17.2,7.74 -17.2,17.2c0,9.46 7.74,17.2 17.2,17.2c9.46,0 17.2,-7.74 17.2,-17.2c0,-9.46 -7.74,-17.2 -17.2,-17.2z" fill="#4e7ab5"></path></g></svg>
