<svg class="icon" width="64" height="64" viewBox="0 0 1024 1024" version="1.1" xmlns="http://www.w3.org/2000/svg"><path d="M515.413333 771.413333c40.96 0 75.093333 34.133333 75.093334 75.093334s-34.133333 75.093333-75.093334 75.093333-75.093333-34.133333-75.093333-75.093333 34.133333-75.093333 75.093333-75.093334zM139.946667 273.066667c-34.133333 20.48-68.266667 44.373333-95.573334 71.68-23.893333 20.48-23.893333 54.613333 0 75.093333 20.48 17.066667 47.786667 17.066667 68.266667 0 30.72-27.306667 64.853333-54.613333 102.4-75.093333L139.946667 273.066667z m150.186666 150.186666c-34.133333 17.066667-68.266667 37.546667-95.573333 64.853334-23.893333 20.48-23.893333 54.613333 0 75.093333 20.48 17.066667 47.786667 17.066667 68.266667 0 30.72-27.306667 68.266667-47.786667 105.813333-64.853333l-78.506667-75.093334z m689.493334-78.506666C856.746667 232.106667 692.906667 163.84 512 163.84c-71.68 0-139.946667 10.24-208.213333 30.72l85.333333 85.333333c40.96-6.826667 81.92-13.653333 122.88-13.653333 153.6 0 293.546667 58.026667 399.36 153.6 20.48 17.066667 51.2 17.066667 68.266667 0 23.893333-20.48 23.893333-54.613333 0-75.093333zM512 368.64h-30.72L590.506667 477.866667c64.853333 13.653333 126.293333 40.96 174.08 85.333333 20.48 17.066667 47.786667 17.066667 68.266666 0 20.48-20.48 20.48-58.026667 0-75.093333-88.746667-75.093333-197.973333-119.466667-320.853333-119.466667z m-61.44 215.04c-37.546667 6.826667-71.68 23.893333-102.4 44.373333-27.306667 17.066667-30.72 54.613333-6.826667 75.093334 17.066667 17.066667 44.373333 20.48 61.44 6.826666 30.72-20.48 68.266667-34.133333 105.813334-34.133333 13.653333 0 23.893333 0 37.546666 3.413333l-95.573333-95.573333z m225.28 177.493333l-546.133333-546.133333c-20.48-20.48-20.48-51.2 0-71.68 20.48-20.48 51.2-20.48 71.68 0l542.72 542.72c20.48 20.48 20.48 51.2 0 71.68-17.066667 20.48-47.786667 20.48-68.266667 3.413333z" /></svg>
