<?xml version="1.0" ?>
<svg xmlns:cc="http://creativecommons.org/ns#" xmlns:dc="http://purl.org/dc/elements/1.1/" xmlns:inkscape="http://www.inkscape.org/namespaces/inkscape" xmlns:rdf="http://www.w3.org/1999/02/22-rdf-syntax-ns#" xmlns:sodipodi="http://sodipodi.sourceforge.net/DTD/sodipodi-0.dtd" xmlns:svg="http://www.w3.org/2000/svg" height="512" id="Layer_1" version="1.1" viewBox="0 0 512 512" width="512" xml:space="preserve" xmlns="http://www.w3.org/2000/svg"><defs id="defs12"/><g id="g5608"><rect height="512" id="rect2987" style="fill:#4c75a3;fill-opacity:1;fill-rule:nonzero;stroke:none" width="512" x="0" y="0"/><path d="m 251.70955,369.14455 h 23.90722 c 0,0 7.21927,-0.79762 10.91007,-4.76903 3.39705,-3.65021 3.28841,-10.50167 3.28841,-10.50167 0,0 -0.47175,-32.08055 14.42054,-36.80302 14.67964,-4.6544 33.52648,31.00352 53.50297,44.7136 15.10712,10.3751 26.58794,8.10401 26.58794,8.10401 l 53.41814,-0.74389 c 0,0 27.93719,-1.7254 14.69046,-23.69711 -1.08421,-1.79346 -7.72077,-16.24983 -39.71651,-45.94943 -33.50267,-31.09426 -29.01187,-26.06134 11.33755,-79.83777 24.56987,-32.75042 34.39689,-52.73881 31.32344,-61.30492 -2.92543,-8.15775 -20.99737,-6.00608 -20.99737,-6.00608 l -60.14789,0.37614 c 0,0 -4.45617,-0.60898 -7.76492,1.36837 -3.22986,1.93675 -5.30509,6.45384 -5.30509,6.45384 0,0 -9.52735,25.34252 -22.21891,46.89512 -26.77781,45.47421 -37.48837,47.88141 -41.86576,45.05151 -10.18409,-6.5816 -7.63722,-26.43388 -7.63722,-40.54397 0,-44.07239 6.68431,-62.45001 -13.02109,-67.20472 -6.53861,-1.57852 -11.353,-2.62571 -28.07453,-2.79407 -21.45819,-0.21851 -39.62332,0.0681 -49.90525,5.10336 -6.84198,3.35887 -12.12325,10.8181 -8.90281,11.25035 3.9749,0.53016 12.97566,2.42511 17.74706,8.92193 6.16377,8.38702 5.94764,27.21599 5.94764,27.21599 0,0 3.54393,51.88028 -8.27001,58.32099 -8.10874,4.42157 -19.22901,-4.60187 -43.10881,-45.86108 -12.23061,-21.1311 -21.46783,-44.49746 -21.46783,-44.49746 0,0 -1.77673,-4.36067 -4.9565,-6.69981 -3.8544,-2.83349 -9.24187,-3.72903 -9.24187,-3.72903 l -57.154499,0.37016 c 0,0 -8.58037,0.24358 -11.72552,3.97499 -2.80725,3.32066 -0.22448,10.18167 -0.22448,10.18167 0,0 44.742259,104.68594 95.406949,157.43907 46.46763,48.38052 99.21848,45.20196 99.21848,45.20196 l 0,0 z" id="path9" style="fill:#ffffff;fill-rule:evenodd"/></g></svg>