<svg xmlns="http://www.w3.org/2000/svg" xmlns:xlink="http://www.w3.org/1999/xlink" xmlns:ev="http://www.w3.org/2001/xml-events"
		xmlns:v="http://schemas.microsoft.com/visio/2003/SVGExtensions/" width="100%" height="100%"
		viewBox="0 0 556.24 397.349" xml:space="preserve" color-interpolation-filters="sRGB" class="st13">
	

	<style type="text/css">
	<![CDATA[
		.st1 {fill:#ffffff}
		.st2 {stroke:#000000;stroke-linecap:round;stroke-linejoin:round;stroke-width:0.75}
		.st3 {fill:#000000;font-family:Calibri;font-size:0.75em;font-weight:bold}
		.st4 {fill:#ffffff;stroke:#000000;stroke-linecap:round;stroke-linejoin:round;stroke-width:0.75}
		.st5 {fill:#ffffff;stroke:none;stroke-linecap:butt;stroke-width:7.2}
		.st6 {font-size:1em}
		.st7 {stroke:#000000;stroke-linecap:round;stroke-linejoin:round;stroke-width:0.5}
		.st8 {stroke:#000000;stroke-linecap:round;stroke-linejoin:round;stroke-width:0.24}
		.st9 {fill:#000000;font-family:Calibri;font-size:0.75em}
		.st10 {marker-end:url(#mrkr4-59);stroke:#000000;stroke-linecap:round;stroke-linejoin:round;stroke-width:0.25}
		.st11 {fill:#000000;fill-opacity:1;stroke:#000000;stroke-opacity:1;stroke-width:0.090252707581227}
		.st12 {fill:#ffffff;stroke:#000000;stroke-linecap:round;stroke-linejoin:round;stroke-width:1}
		.st13 {fill:none;fill-rule:evenodd;font-size:12px;overflow:visible;stroke-linecap:square;stroke-miterlimit:3}
	]]>
	</style>

	<defs id="Markers">
		<g id="lend4">
			<path d="M 2 1 L 0 0 L 2 -1 L 2 1 " style="stroke:none"/>
		</g>
		<marker id="mrkr4-59" class="st11" v:arrowType="4" v:arrowSize="2" v:setback="22.16" refX="-22.16" orient="auto"
				markerUnits="strokeWidth" overflow="visible">
			<use xlink:href="#lend4" transform="scale(-11.08,-11.08) "/>
		</marker>
	</defs>
	<g v:mID="0" v:index="1" v:groupContext="foregroundPage">
		<title>Структура клиента и сервера metadata.js</title>
		<v:pageProperties v:drawingScale="0.0393701" v:pageScale="0.0393701" v:drawingUnits="24" v:shadowOffsetX="8.50394"
				v:shadowOffsetY="-8.50394"/>
		
		<g id="shape1-1" v:mID="1" v:groupContext="shape" v:layerMember="0" transform="translate(254.026,-288.041)">
			<title>База CouchDB</title>			
			<v:textBlock v:margins="rect(0,0,0,0)" v:tabSpace="42.5197"/>
			<v:textRect cx="25.5118" cy="379.278" width="51.03" height="23.3858"/>
			<path d="M0 361.21 L0 390.97 A25.5118 6.37795 -180 1 0 51.02 390.97 L51.02 361.21 A25.5118 6.37795 -180 0 0 0 361.21 Z"
					class="st1"/>
			<path d="M0 361.21 L0 390.97 A25.5118 6.37795 -180 1 0 51.02 390.97 L51.02 361.21 A25.5118 6.37795 -180 0 0 0 361.21"
					class="st2"/>
			<path d="M0 361.21 A25.5118 6.37795 -180 1 0 51.02 361.21" class="st2"/>
			<text x="8.64" y="381.98" class="st3" v:langID="1033"><v:paragraph v:horizAlign="1"/><v:tabList/>CouchDB</text>		</g>
		<g id="shape2-6" v:mID="2" v:groupContext="shape" v:layerMember="0" transform="translate(30.0886,-285.207)">
			<title>Сервер 1С</title>			
			<v:textBlock v:margins="rect(0,0,0,0)" v:tabSpace="42.5197"/>
			<v:textRect cx="25.5118" cy="377.861" width="51.03" height="26.2205"/>
			<path d="M0 358.37 L0 390.97 A25.5118 6.37795 -180 1 0 51.02 390.97 L51.02 358.37 A25.5118 6.37795 -180 0 0 0 358.37 Z"
					class="st1"/>
			<path d="M0 358.37 L0 390.97 A25.5118 6.37795 -180 1 0 51.02 390.97 L51.02 358.37 A25.5118 6.37795 -180 0 0 0 358.37"
					class="st2"/>
			<path d="M0 358.37 A25.5118 6.37795 -180 0 0 51.02 358.37" class="st2"/>
			<text x="10.97" y="380.56" class="st3" v:langID="1049"><v:paragraph v:horizAlign="1"/><v:tabList/>База 1С</text>		</g>
		<g id="group3-11" transform="translate(18.75,-18.75)" v:mID="3" v:groupContext="group">			
			<g id="shape4-12" v:mID="4" v:groupContext="shape">
				<title>Metadata.js в браузере</title>				
				<v:textBlock v:margins="rect(4,4,4,4)" v:tabSpace="42.5197"/>
				<v:textRect cx="259.37" cy="220.467" width="453.9" height="22.1102"/>
				<rect x="0" y="220.467" width="518.74" height="176.882" rx="9" ry="9" class="st4"/>
				<rect v:rectContext="textBkgnd" x="36.4214" y="215.067" width="94.3286" height="10.7998" class="st5"/>
				<text x="40.49" y="223.17" class="st3" v:langID="1033"><v:paragraph/><v:tabList/>Metadata.js <tspan class="st6"
							v:langID="1049">В</tspan><tspan class="st6" v:langID="1049"> </tspan><tspan class="st6" v:langID="1049">браузере</tspan>  </text>			</g>
		</g>
		<g id="group8-19" transform="translate(-96.8768,58.9684) rotate(-90)" v:mID="8" v:groupContext="group">
			<title>Сервер back-end</title>
			<g id="shape9-20" v:mID="9" v:groupContext="shape" transform="translate(-121.415,534.422) rotate(-159.12)">				
				<path d="M29.99 397.35 L0 397.35" class="st7"/>
			</g>
			<g id="shape10-23" v:mID="10" v:groupContext="shape" transform="translate(397.349,163.166) rotate(90)">					
				<v:textBlock v:margins="rect(4,4,4,4)" v:tabSpace="42.5197"/>
				<v:textRect cx="117.092" cy="377.147" width="234.19" height="40.4036"/>
				<path d="M39.03 356.95 L0 356.95 L0 397.35 L39.03 397.35" class="st8"/>
				<text x="4" y="369.05" class="st9" v:langID="1049"><v:paragraph/><v:tabList/>Серверная бизнес-логика, документы, регистры, отчеты.
					<tspan x="4" dy="1.2em" class="st6">Много</tspan> типовых и отраслевых решений класса ERP,<v:lf/>
					<tspan x="4" dy="1.2em" class="st6">от</tspan> которых можно унаследовать метаданные и код</text>
			</g>
		</g>
		<g id="group11-31" transform="translate(121.545,59.33) rotate(-90)" v:mID="11" v:groupContext="group">
			<title>Распределенная консистентная репликация CRDT</title>
			<g id="shape12-32" v:mID="12" v:groupContext="shape" transform="translate(-306.933,429.27) rotate(-125.933)">				
				<path d="M38.35 397.35 L0 397.35" class="st7"/>
			</g>
			<g id="shape13-35" v:mID="13" v:groupContext="shape" transform="translate(397.349,196.089) rotate(90)">				
				<v:textBlock v:margins="rect(4,4,4,4)" v:tabSpace="42.5197"/>
				<v:textRect cx="100.63" cy="382.547" width="201.26" height="29.6036"/>
				<path d="M33.54 367.75 L0 367.75 L0 397.35 L33.54 397.35" class="st8"/>
				<text x="4" y="379.85" class="st9" v:langID="1049"><v:paragraph/><v:tabList/>Репликация с 1С и браузерными базами PouchDB<v:lf/>
					<tspan x="4" dy="1.2em" class="st6">Высокая</tspan> масштабируемость и надёжность</text>
			</g>
		</g>
		<g id="shape5-41" v:mID="5" v:groupContext="shape" v:layerMember="0" transform="translate(254.026,-95.2854)">
			<title>Offline хранилище в IndexedDB</title>			
			<v:textBlock v:margins="rect(0,0,0,0)" v:tabSpace="42.5197"/>
			<v:textRect cx="25.5118" cy="379.278" width="51.03" height="23.3858"/>
			<path d="M0 361.21 L0 390.97 A25.5118 6.37795 -180 1 0 51.02 390.97 L51.02 361.21 A25.5118 6.37795 -180 0 0 0 361.21 Z"
					class="st1"/>
			<path d="M0 361.21 L0 390.97 A25.5118 6.37795 -180 1 0 51.02 390.97 L51.02 361.21 A25.5118 6.37795 -180 0 0 0 361.21"
					class="st2"/>
			<path d="M0 361.21 A25.5118 6.37795 -180 1 0 51.02 361.21" class="st2"/>
			<text x="8.63" y="381.98" class="st3" v:langID="1033"><v:paragraph v:horizAlign="1"/><v:tabList/>PouchDB</text>		</g>
		<g id="shape6-46" v:mID="6" v:groupContext="shape" v:layerMember="0" transform="translate(32.9232,-96.7028)">
			<title>движок SQL для браузера</title>			
			<v:textBlock v:margins="rect(0,0,0,0)" v:tabSpace="42.5197"/>
			<v:textRect cx="25.5118" cy="379.278" width="51.03" height="23.3858"/>
			<path d="M0 361.21 L0 390.97 A25.5118 6.37795 -180 1 0 51.02 390.97 L51.02 361.21 A25.5118 6.37795 -180 0 0 0 361.21 Z"
					class="st1"/>
			<path d="M0 361.21 L0 390.97 A25.5118 6.37795 -180 1 0 51.02 390.97 L51.02 361.21 A25.5118 6.37795 -180 0 0 0 361.21"
					class="st2"/>
			<path d="M0 361.21 A25.5118 6.37795 -180 1 0 51.02 361.21" class="st2"/>
			<text x="12.34" y="381.98" class="st3" v:langID="1033"><v:paragraph v:horizAlign="1"/><v:tabList/>AlaSQL</text>		</g>
		<g id="shape7-51" v:mID="7" v:groupContext="shape" transform="translate(31.5059,-35.7579)">
			<title>MetaEngine экспортирует высокоуровневые объекты и менеджеры данных</title>			
			<v:textBlock v:margins="rect(4,4,4,4)" v:tabSpace="42.5197"/>
			<v:textRect cx="29.0551" cy="381.351" width="58.12" height="31.9961"/>
			<rect x="0" y="365.353" width="58.1102" height="31.9961" class="st4"/>
			<text x="6.55" y="384.05" class="st3" v:langID="1033"><v:paragraph v:horizAlign="1"/><v:tabList/>MetaEngine</text>		</g>
		<g id="shape14-54" v:mID="14" v:groupContext="shape" v:layerMember="1" transform="translate(81.1122,-309.301)">
			<path d="M0 390.26 L167.37 390.26" class="st10"/>
		</g>
		<g id="shape15-60" v:mID="15" v:groupContext="shape" v:layerMember="1" transform="translate(254.026,-295.128)">
			<path d="M0 390.26 L-167.37 390.26" class="st10"/>
		</g>
		<g id="shape16-65" v:mID="16" v:groupContext="shape" v:layerMember="1" transform="translate(280.702,-288.213)">
			<path d="M-7.04 397.35 L-7.13 542.39" class="st10"/>
		</g>
		<g id="shape17-70" v:mID="17" v:groupContext="shape" v:layerMember="1" transform="translate(278.024,-137.653)">
			<path d="M7.06 397.35 L7.11 252.34" class="st10"/>
		</g>
		<g id="group18-75" transform="translate(125.968,255.651) rotate(-90)" v:mID="18" v:groupContext="group">			
			<g id="shape19-76" v:mID="19" v:groupContext="shape" transform="translate(-162.954,537.37) rotate(-152.552)">				
				<path d="M29.17 397.35 L0 397.35" class="st7"/>
			</g>
			<g id="shape20-79" v:mID="20" v:groupContext="shape" transform="translate(397.349,184.751) rotate(90)">
				<title>Offline хранилище в IndexedDB</title>				
				<v:textBlock v:margins="rect(4,4,4,4)" v:tabSpace="42.5197"/>
				<v:textRect cx="106.299" cy="377.147" width="212.6" height="40.4036"/>
				<path d="M35.43 356.95 L0 356.95 L0 397.35 L35.43 397.35" class="st7"/>
				<text x="4" y="369.05" class="st9" v:langID="1033"><v:paragraph/><v:tabList/>Offline хранилище данных в IndexedDB браузера
					<tspan x="4" dy="1.2em" class="st6" v:langID="1049">Репликация</tspan> с базами CouchDB<v:lf/>
					<tspan x="4" dy="1.2em" class="st6" v:langID="1049">Устойчивость</tspan> к помехам и плохим каналам связи</text>
			</g>
		</g>
		<g id="group21-111" transform="translate(-135.547,247.041) rotate(-90)" v:mID="21" v:groupContext="group">
			<title>движок SQL для браузера</title>
			<g id="shape22-112" v:mID="22" v:groupContext="shape" transform="translate(-168.354,560.047) rotate(-152.552)">				
				<path d="M29.17 397.35 L0 397.35" class="st7"/>
			</g>
			<g id="shape23-115" v:mID="23" v:groupContext="shape" transform="translate(397.349,207.428) rotate(90)">				
				<v:textBlock v:margins="rect(4,4,4,4)" v:tabSpace="42.5197"/>
				<v:textRect cx="94.9606" cy="382.547" width="189.93" height="29.6036"/>
				<path d="M31.65 367.75 L0 367.75 L0 397.35 L31.65 397.35" class="st8"/>
				<text x="4" y="379.85" class="st9" v:langID="1049"><v:paragraph/><v:tabList/>Массив данных в ОЗУ браузера<v:lf/>
					<tspan x="4" dy="1.2em" class="st6" v:langID="1033">SQL </tspan>интерфейс к данным в javascript</text>
			</g>
		</g>
		<g id="shape24-122" v:mID="24" v:groupContext="shape" v:layerMember="1" transform="translate(83.9469,-116.545)">
			<path d="M0 390.26 L164.54 390.26" class="st10"/>
		</g>
		<g id="shape25-127" v:mID="25" v:groupContext="shape" v:layerMember="1" transform="translate(254.026,-105.207)">
			<path d="M0 390.26 L-164.54 390.26" class="st10"/>
		</g>
		<g id="shape26-132" v:mID="26" v:groupContext="shape" v:layerMember="1" transform="translate(42.8046,-97.0746)">
			<path d="M7.05 397.35 L7.11 421.13" class="st10"/>
		</g>
		<g id="shape27-137" v:mID="27" v:groupContext="shape" v:layerMember="1" transform="translate(71.0473,-67.8657)">
			<path d="M-6.98 397.35 L-7.15 373.91" class="st10"/>
		</g>
		<g id="group28-142" transform="translate(76.3613,361.681) rotate(-90)" v:mID="28" v:groupContext="group">
			<title>MetaEngine экспортирует высокоуровневые объекты и менеджеры данных</title>
			<g id="shape29-143" v:mID="29" v:groupContext="shape" transform="translate(-336.132,193.27) rotate(-114.444)">				
				<path d="M17.13 397.35 L0 397.35" class="st7"/>
			</g>
			<g id="shape30-146" v:mID="30" v:groupContext="shape" transform="translate(397.349,28.8453) rotate(90)">				
				<v:textBlock v:margins="rect(4,4,4,4)" v:tabSpace="42.5197"/>
				<v:textRect cx="184.252" cy="371.747" width="368.51" height="51.2036"/>
				<path d="M61.42 346.15 L0 346.15 L0 397.35 L61.42 397.35" class="st8"/>
				<text x="4" y="358.25" class="st9" v:langID="1049"><v:paragraph/><v:tabList/>Предоставляет высокоуровневые javascript объекты (документы, регистры и справочники),<v:lf/>
					<tspan x="4" dy="1.2em" class="st6">схожие</tspan> по функциональности одноименным объектам платформы 1С<v:lf/>
					<tspan x="4" dy="1.2em" class="st6">Позволяет</tspan> вести разработку offline-first браузерных бизнес-приложений<v:lf/>
					<tspan x="4" dy="1.2em" class="st6">в</tspan> стиле и терминах, близких к платформе 1С
				</text>			
			</g>
		</g>
		<g id="shape31-157" v:mID="31" v:groupContext="shape" v:layerMember="2" transform="translate(249.449,-218.268)">
			<title>Канал связи</title>			
			<v:textBlock v:margins="rect(0,0,0,0)" v:tabSpace="42.5197"/>
			<v:textRect cx="28.3465" cy="383.176" width="56.7" height="28.3465"/>
			<path d="M2.17 382.01 A7.07618 4.4263 -180 0 0 5.58 389.52 A8.64477 5.40749 -180 0 0 18.86 394.22 A8.74757 5.4718 -180
						 0 0 34.28 394.68 A10.4021 6.50677 -180 0 0 50.44 389.24 A8.03278 5.02468 -180 0 0 54.17 380.68 A6.30143
						 3.94169 -180 0 0 49.2 374.46 A10.7771 6.74132 -180 0 0 30.55 372.13 A10.5913 6.62508 -180 0 0 11.9 372.91
						 A9.92053 6.20551 -180 0 0 2.17 382.01 Z" class="st12"/>
			<text x="10.32" y="385.88" class="st9" v:langID="1049"><v:paragraph v:horizAlign="1"/><v:tabList/>Интернет</text>
		</g>
		<g id="group32-160" transform="translate(-135.469,175.3) rotate(-90)" v:mID="32" v:groupContext="group">
			<title>Примечание.32</title>
			<g id="shape33-161" v:mID="33" v:groupContext="shape" transform="translate(-134.809,-155.414) rotate(-24.6638)">
				<title>Лист.33</title>
				<path d="M35.03 397.35 L0 397.35" class="st7"/>
			</g>
			<g id="shape34-164" v:mID="34" v:groupContext="shape" transform="translate(397.349,205.686) rotate(90)">
				<title>Система не имеет строгой зависимости от 1С</title>				
				<v:textBlock v:margins="rect(4,4,4,4)" v:tabSpace="42.5197"/>
				<v:textRect cx="95.8317" cy="366.347" width="191.67" height="62.0036"/>
				<path d="M31.94 335.35 L0 335.35 L0 397.35 L31.94 397.35" class="st8"/>
				<text x="4" y="347.45" class="st9" v:langID="1049"><v:paragraph/><v:tabList/>Нет строгой зависимости от 1С<v:lf/>
					<tspan x="4" dy="1.2em" class="st6">Можно</tspan> использовать любой ORM-Сервер<v:lf/>
					<tspan x="4" dy="1.2em" class="st6">Небольшие</tspan> проекты могут работать вообще без<v:lf/>
					<tspan x="4" dy="1.2em" class="st6">back-end</tspan> сервера. Бизнес-логику можно<v:lf/>
					<tspan x="4" dy="1.2em" class="st6">реализовать</tspan> средствами CouchDB</text>
			</g>
		</g>
		<g id="group35-179" transform="translate(121.391,151.094) rotate(-90)" v:mID="35" v:groupContext="group">
			<title>Offline-first</title>
			<g id="shape36-180" v:mID="36" v:groupContext="shape" transform="translate(-278.742,457.851) rotate(-131.206)">				
				<path d="M32.24 397.35 L0 397.35" class="st7"/>
			</g>
			<g id="shape37-183" v:mID="37" v:groupContext="shape" transform="translate(397.349,196.089) rotate(90)">				
				<v:textBlock v:margins="rect(4,4,4,4)" v:tabSpace="42.5197"/>
				<v:textRect cx="100.63" cy="377.147" width="201.26" height="40.4036"/>
				<path d="M33.54 356.95 L0 356.95 L0 397.35 L33.54 397.35" class="st8"/>
				<text x="4" y="369.05" class="st9" v:langID="1049"><v:paragraph/><v:tabList/>Основные функции системы доступны offline.<v:lf/>
					<tspan x="4" dy="1.2em" class="st6">Подключение</tspan> используется для обмена данными<v:lf/> 
					<tspan x="4" dy="1.2em" class="st6">с</tspan> сервером и построения сложных отчетов</text>
			</g>
		</g>
	</g>
</svg>